# xmcd CD database file
#
# Track frame offsets:
#	150
#	14397
#	28868
#	40265
#	53568
#	63639
#	81639
#
# Disc length: 1289 seconds
#
# Revision: 0
# Processed by: cddbd v1.5.1PL0 Copyright (c) Steve Scherf et al.
# Submitted via: CDex 1.51
#
DISCID=5b050707
DTITLE=The Red Mercury Blues Band - nothin purdy boutda blues
DYEAR=1999
DGENRE=Blues
TTITLE0=Come back Baby
TTITLE1=Why dont you tell me
TTITLE2=Stop what your doin
TTITLE3=Your biscuts rise so nice
TTITLE4=Always a fight
TTITLE5=You and me
TTITLE6=Thinkin about you
EXTD=YEAR: 1999
EXTT0=
EXTT1=
EXTT2=
EXTT3=
EXTT4=
EXTT5=
EXTT6=
PLAYORDER=
